<?xml version="1.0" encoding="utf-8"?>
<!-- Generator: Adobe Illustrator 25.0.0, SVG Export Plug-In . SVG Version: 6.00 Build 0)  -->
<svg version="1.1" id="Layer_1" xmlns="http://www.w3.org/2000/svg" xmlns:xlink="http://www.w3.org/1999/xlink" x="0px" y="0px"
	 viewBox="0 0 100 34.28" style="enable-background:new 0 0 100 34.28;" xml:space="preserve">
<style type="text/css">
	.st0{fill:#FFFFFF;}
	.st1{fill:#F97316;}
</style>
<path d="M66.26,29.53c-0.05,0-0.1,0-0.16,0c-1.89,0-3.77,0-5.66,0c-0.12,0-0.21-0.03-0.3-0.11c-3.93-3.34-7.87-6.69-11.81-10.03
	c-0.01-0.01-0.03-0.02-0.04-0.03c-0.06-0.07-0.1-0.06-0.17,0C47.76,19.68,47.38,20,47,20.32c-1.65,1.39-3.29,2.78-4.94,4.17
	c-0.08,0.07-0.15,0.1-0.26,0.1c-1.73,0-3.47-0.02-5.2,0c-4.23,0.04-8.45,0.01-12.68,0.02c-0.24,0-0.2,0.03-0.2-0.2
	c0-5.09,0-10.18,0-15.27c0-0.22-0.03-0.2,0.19-0.2c4.13,0,8.25-0.02,12.38,0.01c1.87,0.01,3.74,0,5.61,0.02
	c0.1,0,0.17,0.04,0.24,0.1c1.76,1.49,3.52,2.97,5.27,4.46c0.24,0.2,0.47,0.4,0.71,0.6c0.12,0.11,0.1,0.09,0.21,0
	c0.88-0.74,1.76-1.48,2.64-2.22c1.14-0.96,2.28-1.92,3.42-2.88c0.06-0.05,0.13-0.08,0.21-0.08c3.05,0,6.11,0,9.16,0
	c0.03,0,0.05,0,0.08,0c0.05,0,0.07,0.02,0.07,0.07c0,0.04,0,0.09,0,0.13c0,3.35,0,6.7,0,10.06c0,0.38,0.05,0.75,0.17,1.12
	c0.24,0.69,0.73,1.13,1.4,1.4c0.45,0.18,0.92,0.26,1.4,0.28c0.64,0.03,1.27-0.01,1.88-0.21c0.17-0.06,0.34-0.13,0.5-0.22
	c0.65-0.36,1.01-0.92,1.15-1.64c0.05-0.26,0.07-0.52,0.07-0.78c0-3.33,0-6.66,0-9.99c0-0.2,0-0.2,0.19-0.2c1.29,0,2.58,0,3.87,0
	c0.04,0,0.07,0,0.11,0c0.06,0,0.09,0.02,0.08,0.08c0,0.03,0,0.06,0,0.1c0,3.35,0,6.7,0,10.06c0,0.78-0.13,1.53-0.45,2.24
	c-0.35,0.76-0.88,1.37-1.55,1.85c-0.83,0.6-1.76,0.99-2.75,1.22c-1.21,0.28-2.43,0.34-3.67,0.27c-0.88-0.05-1.74-0.19-2.57-0.46
	c-0.98-0.32-1.88-0.78-2.63-1.5c-0.72-0.68-1.16-1.52-1.34-2.49c-0.07-0.37-0.1-0.75-0.1-1.13c0-3.1,0-6.2,0-9.31
	c0-0.06,0-0.11,0-0.21c-2.82,2.37-5.62,4.73-8.43,7.09c5.02,4.26,10.03,8.5,15.04,12.75C66.27,29.51,66.27,29.52,66.26,29.53z"/>
<path d="M20.84,16.77c0,2.53,0,5.06,0,7.6c0,0.03,0,0.05,0,0.08c0,0.18,0.01,0.15-0.15,0.15c-1.31,0-2.62,0-3.93,0
	c-0.11,0-0.17-0.03-0.23-0.12c-1.53-2.28-3.06-4.56-4.58-6.83c-0.65-0.97-1.3-1.94-1.95-2.9c-0.03-0.04-0.05-0.13-0.12-0.11
	c-0.07,0.02-0.04,0.1-0.04,0.15c0,3.2,0,6.41,0,9.61c0,0.24,0.03,0.2-0.2,0.2c-1.29,0-2.58,0-3.87,0c-0.04,0-0.09,0-0.13,0
	c-0.05,0-0.07-0.02-0.07-0.07c0-0.04,0-0.07,0-0.11c0-5.11,0-10.21,0-15.32c0-0.01,0-0.02,0-0.03c0-0.14,0-0.14,0.14-0.14
	c1.33,0,2.67,0,4,0c0.1,0,0.15,0.03,0.21,0.11c1.14,1.71,2.29,3.41,3.44,5.12c1.04,1.54,2.07,3.09,3.11,4.63
	c0.03,0.04,0.05,0.13,0.12,0.11c0.07-0.02,0.04-0.1,0.04-0.16c0-3.2,0-6.41,0-9.61c0-0.2,0-0.2,0.19-0.2c1.29,0,2.58,0,3.87,0
	c0.04,0,0.07,0,0.11,0c0.05,0,0.07,0.02,0.06,0.07c0,0.04,0,0.09,0,0.13C20.84,11.68,20.84,14.23,20.84,16.77z"/>
<path d="M79.1,19.53c0.65,0,1.29,0,1.94,0c0.12,0,0.13-0.02,0.13,0.13c0.01,0.26,0.04,0.52,0.12,0.77c0.16,0.53,0.48,0.92,0.97,1.17
	c0.36,0.19,0.75,0.29,1.15,0.35c0.58,0.09,1.16,0.11,1.74,0.06c0.37-0.03,0.74-0.1,1.08-0.25c0.15-0.07,0.29-0.15,0.42-0.25
	c0.81-0.61,0.65-1.78,0.04-2.28c-0.19-0.16-0.4-0.28-0.62-0.38c-0.69-0.33-1.41-0.56-2.15-0.77c-1.24-0.35-2.46-0.74-3.62-1.28
	c-0.41-0.19-0.81-0.4-1.19-0.65c-0.76-0.49-1.3-1.15-1.51-2.04c-0.22-0.9-0.18-1.79,0.27-2.62c0.25-0.47,0.6-0.85,1.02-1.18
	c0.7-0.55,1.5-0.93,2.36-1.18c0.74-0.22,1.49-0.34,2.26-0.39c0.69-0.05,1.37-0.05,2.06,0.01c1.32,0.11,2.58,0.44,3.71,1.16
	c0.48,0.3,0.91,0.66,1.26,1.1c0.56,0.69,0.83,1.49,0.82,2.38c0,0.03,0,0.05,0,0.08c-0.01,0.05-0.03,0.09-0.09,0.09
	c-0.03,0-0.06,0-0.1,0c-1.26,0-2.53,0-3.79,0c-0.02,0-0.04,0-0.06,0c-0.09,0.01-0.1-0.03-0.11-0.11c-0.03-0.68-0.37-1.19-0.93-1.55
	c-0.32-0.21-0.68-0.33-1.06-0.38c-0.68-0.11-1.36-0.09-2.03,0.09c-0.42,0.11-0.81,0.31-1.11,0.63c-0.22,0.23-0.35,0.5-0.37,0.83
	c-0.02,0.37,0.12,0.68,0.39,0.92c0.18,0.16,0.38,0.27,0.59,0.37c0.54,0.26,1.1,0.45,1.67,0.64c0.7,0.24,1.43,0.41,2.14,0.64
	c0.88,0.28,1.75,0.61,2.56,1.06c0.44,0.25,0.87,0.52,1.24,0.87c0.63,0.6,0.99,1.33,1.11,2.19c0.08,0.59,0.06,1.18-0.11,1.76
	c-0.22,0.75-0.67,1.33-1.28,1.81c-0.63,0.49-1.35,0.81-2.11,1.04c-0.75,0.22-1.52,0.34-2.29,0.39c-0.53,0.04-1.05,0.04-1.58,0.02
	c-1.48-0.06-2.9-0.36-4.24-1.02c-0.55-0.27-1.06-0.58-1.51-1c-0.74-0.7-1.16-1.55-1.24-2.57c-0.01-0.16-0.03-0.33-0.02-0.49
	c0-0.15,0.01-0.15,0.16-0.15C77.81,19.53,78.46,19.53,79.1,19.53z"/>
<path class="st0" d="M35.27,24.13c0-0.09,0-0.14,0-0.19c0-0.66,0-1.31,0-1.97c0-0.04,0-0.07,0-0.11c0-0.04-0.02-0.06-0.06-0.06
	c-0.04,0-0.09,0-0.13,0c-2.3,0-4.61,0-6.91,0c-0.21,0-0.18,0.03-0.18-0.18c0-1.18,0-2.37,0-3.55c0-0.21-0.02-0.17,0.18-0.18
	c1.19,0,2.38,0,3.57,0c0.04,0,0.07,0,0.11,0c0.06,0.01,0.1-0.01,0.09-0.09c0-0.02,0-0.03,0-0.05c0-0.68,0-1.36,0-2.05
	c0-0.15,0.01-0.14-0.14-0.14c-1.2,0-2.4,0-3.6,0c-0.03,0-0.06,0-0.1,0c-0.12,0-0.12,0-0.12-0.13c0-1.2,0-2.4,0-3.6
	c0-0.12,0-0.12,0.14-0.12c1.1,0,2.2,0,3.29,0c1.21,0,2.42,0,3.63,0c0.02,0,0.04,0,0.06,0c0.17,0,0.15,0.01,0.15-0.16
	c0-0.67,0-1.34,0-2.01c0-0.05,0-0.1,0-0.19c1.68,1.24,3.33,2.46,4.98,3.68c1.65,1.22,3.31,2.44,4.97,3.68
	C41.89,19.21,38.6,21.66,35.27,24.13z"/>
<path class="st1" d="M35.97,10.74c2.71,2,5.39,3.99,8.1,5.99c-2.7,2.01-5.39,4-8.09,6c-0.03-0.05-0.02-0.09-0.02-0.13
	c0-0.44,0-0.87,0-1.31c0-0.19,0.02-0.18-0.18-0.18c-0.32,0-0.64,0-0.96,0c-1.98,0-3.97,0-5.95,0c-0.23,0-0.2,0.02-0.2-0.21
	c0-0.71,0-1.42,0-2.13c0-0.04,0-0.07,0-0.11c0-0.05,0.02-0.08,0.07-0.08c0.04,0,0.09,0,0.13,0c1.18,0,2.37,0,3.55,0
	c0.04,0,0.09,0,0.13,0c0.06,0,0.09-0.03,0.08-0.09c0-0.03,0-0.06,0-0.1c0-1.11,0-2.23,0-3.34c0-0.03,0-0.06,0-0.1
	c0-0.06-0.03-0.08-0.09-0.08c-0.04,0-0.09,0-0.13,0c-1.18,0-2.36,0-3.53,0c-0.04,0-0.09,0-0.13,0c-0.06,0-0.09-0.03-0.08-0.09
	c0-0.03,0-0.05,0-0.08c0-0.71,0-1.42,0-2.13c0-0.03,0-0.06,0-0.1c0-0.05,0.02-0.08,0.08-0.08c0.05,0,0.1,0,0.14,0
	c2.29,0,4.57,0,6.86,0c0.23,0,0.21,0.02,0.21-0.2c0-0.43,0-0.86,0-1.29C35.97,10.88,35.97,10.82,35.97,10.74z"/>
</svg>
