<?xml version="1.0" encoding="utf-8"?>
<!-- Generator: Adobe Illustrator 25.0.0, SVG Export Plug-In . SVG Version: 6.00 Build 0)  -->
<svg version="1.1" id="Layer_1" xmlns="http://www.w3.org/2000/svg" xmlns:xlink="http://www.w3.org/1999/xlink" x="0px" y="0px"
	 viewBox="0 0 100 34.3" style="enable-background:new 0 0 100 34.3;" xml:space="preserve">
<style type="text/css">
	.st0{fill:#FFFFFF;}
	.st1{fill:#F97316;}
</style>
<path class="st0" d="M66.3,29.5c-0.1,0-0.1,0-0.2,0c-1.9,0-3.8,0-5.7,0c-0.1,0-0.2,0-0.3-0.1c-3.9-3.3-7.9-6.7-11.8-10c0,0,0,0,0,0
	c-0.1-0.1-0.1-0.1-0.2,0c-0.4,0.3-0.7,0.6-1.1,1c-1.7,1.4-3.3,2.8-4.9,4.2c-0.1,0.1-0.2,0.1-0.3,0.1c-1.7,0-3.5,0-5.2,0
	c-4.2,0-8.5,0-12.7,0c-0.2,0-0.2,0-0.2-0.2c0-5.1,0-10.2,0-15.3c0-0.2,0-0.2,0.2-0.2c4.1,0,8.3,0,12.4,0c1.9,0,3.7,0,5.6,0
	c0.1,0,0.2,0,0.2,0.1c1.8,1.5,3.5,3,5.3,4.5c0.2,0.2,0.5,0.4,0.7,0.6c0.1,0.1,0.1,0.1,0.2,0c0.9-0.7,1.8-1.5,2.6-2.2
	c1.1-1,2.3-1.9,3.4-2.9c0.1-0.1,0.1-0.1,0.2-0.1c3,0,6.1,0,9.2,0c0,0,0,0,0.1,0c0,0,0.1,0,0.1,0.1c0,0,0,0.1,0,0.1
	c0,3.3,0,6.7,0,10.1c0,0.4,0,0.8,0.2,1.1c0.2,0.7,0.7,1.1,1.4,1.4c0.4,0.2,0.9,0.3,1.4,0.3c0.6,0,1.3,0,1.9-0.2
	c0.2-0.1,0.3-0.1,0.5-0.2c0.7-0.4,1-0.9,1.2-1.6c0.1-0.3,0.1-0.5,0.1-0.8c0-3.3,0-6.7,0-10c0-0.2,0-0.2,0.2-0.2c1.3,0,2.6,0,3.9,0
	c0,0,0.1,0,0.1,0c0.1,0,0.1,0,0.1,0.1c0,0,0,0.1,0,0.1c0,3.3,0,6.7,0,10.1c0,0.8-0.1,1.5-0.4,2.2c-0.3,0.8-0.9,1.4-1.6,1.9
	c-0.8,0.6-1.8,1-2.8,1.2c-1.2,0.3-2.4,0.3-3.7,0.3c-0.9,0-1.7-0.2-2.6-0.5c-1-0.3-1.9-0.8-2.6-1.5c-0.7-0.7-1.2-1.5-1.3-2.5
	c-0.1-0.4-0.1-0.8-0.1-1.1c0-3.1,0-6.2,0-9.3c0-0.1,0-0.1,0-0.2c-2.8,2.4-5.6,4.7-8.4,7.1C56.3,21,61.3,25.3,66.3,29.5
	C66.3,29.5,66.3,29.5,66.3,29.5z"/>
<path class="st0" d="M20.8,16.8c0,2.5,0,5.1,0,7.6c0,0,0,0,0,0.1c0,0.2,0,0.1-0.1,0.1c-1.3,0-2.6,0-3.9,0c-0.1,0-0.2,0-0.2-0.1
	c-1.5-2.3-3.1-4.6-4.6-6.8c-0.6-1-1.3-1.9-1.9-2.9c0,0-0.1-0.1-0.1-0.1s0,0.1,0,0.1c0,3.2,0,6.4,0,9.6c0,0.2,0,0.2-0.2,0.2
	c-1.3,0-2.6,0-3.9,0c0,0-0.1,0-0.1,0c-0.1,0-0.1,0-0.1-0.1c0,0,0-0.1,0-0.1c0-5.1,0-10.2,0-15.3c0,0,0,0,0,0c0-0.1,0-0.1,0.1-0.1
	c1.3,0,2.7,0,4,0c0.1,0,0.1,0,0.2,0.1c1.1,1.7,2.3,3.4,3.4,5.1c1,1.5,2.1,3.1,3.1,4.6c0,0,0,0.1,0.1,0.1c0.1,0,0-0.1,0-0.2
	c0-3.2,0-6.4,0-9.6c0-0.2,0-0.2,0.2-0.2c1.3,0,2.6,0,3.9,0c0,0,0.1,0,0.1,0c0,0,0.1,0,0.1,0.1c0,0,0,0.1,0,0.1
	C20.8,11.7,20.8,14.2,20.8,16.8z"/>
<path class="st0" d="M79.1,19.5c0.7,0,1.3,0,1.9,0c0.1,0,0.1,0,0.1,0.1c0,0.3,0,0.5,0.1,0.8c0.2,0.5,0.5,0.9,1,1.2
	c0.4,0.2,0.8,0.3,1.2,0.4c0.6,0.1,1.2,0.1,1.7,0.1c0.4,0,0.7-0.1,1.1-0.2c0.2-0.1,0.3-0.1,0.4-0.2c0.8-0.6,0.7-1.8,0-2.3
	c-0.2-0.2-0.4-0.3-0.6-0.4c-0.7-0.3-1.4-0.6-2.2-0.8c-1.2-0.4-2.5-0.7-3.6-1.3c-0.4-0.2-0.8-0.4-1.2-0.6c-0.8-0.5-1.3-1.1-1.5-2
	c-0.2-0.9-0.2-1.8,0.3-2.6c0.2-0.5,0.6-0.9,1-1.2c0.7-0.6,1.5-0.9,2.4-1.2c0.7-0.2,1.5-0.3,2.3-0.4c0.7-0.1,1.4-0.1,2.1,0
	c1.3,0.1,2.6,0.4,3.7,1.2c0.5,0.3,0.9,0.7,1.3,1.1c0.6,0.7,0.8,1.5,0.8,2.4c0,0,0,0.1,0,0.1c0,0.1,0,0.1-0.1,0.1c0,0-0.1,0-0.1,0
	c-1.3,0-2.5,0-3.8,0c0,0,0,0-0.1,0c-0.1,0-0.1,0-0.1-0.1c0-0.7-0.4-1.2-0.9-1.6c-0.3-0.2-0.7-0.3-1.1-0.4c-0.7-0.1-1.4-0.1-2,0.1
	c-0.4,0.1-0.8,0.3-1.1,0.6c-0.2,0.2-0.3,0.5-0.4,0.8c0,0.4,0.1,0.7,0.4,0.9c0.2,0.2,0.4,0.3,0.6,0.4c0.5,0.3,1.1,0.4,1.7,0.6
	c0.7,0.2,1.4,0.4,2.1,0.6c0.9,0.3,1.8,0.6,2.6,1.1c0.4,0.2,0.9,0.5,1.2,0.9c0.6,0.6,1,1.3,1.1,2.2c0.1,0.6,0.1,1.2-0.1,1.8
	c-0.2,0.8-0.7,1.3-1.3,1.8c-0.6,0.5-1.3,0.8-2.1,1c-0.8,0.2-1.5,0.3-2.3,0.4c-0.5,0-1.1,0-1.6,0c-1.5-0.1-2.9-0.4-4.2-1
	c-0.6-0.3-1.1-0.6-1.5-1c-0.7-0.7-1.2-1.5-1.2-2.6c0-0.2,0-0.3,0-0.5c0-0.1,0-0.1,0.2-0.1C77.8,19.5,78.5,19.5,79.1,19.5z"/>
<path class="st0" d="M35.3,24.1c0-0.1,0-0.1,0-0.2c0-0.7,0-1.3,0-2c0,0,0-0.1,0-0.1s0-0.1-0.1-0.1s-0.1,0-0.1,0c-2.3,0-4.6,0-6.9,0
	c-0.2,0-0.2,0-0.2-0.2c0-1.2,0-2.4,0-3.5c0-0.2,0-0.2,0.2-0.2c1.2,0,2.4,0,3.6,0c0,0,0.1,0,0.1,0c0.1,0,0.1,0,0.1-0.1c0,0,0,0,0,0
	c0-0.7,0-1.4,0-2c0-0.1,0-0.1-0.1-0.1c-1.2,0-2.4,0-3.6,0c0,0-0.1,0-0.1,0c-0.1,0-0.1,0-0.1-0.1c0-1.2,0-2.4,0-3.6
	c0-0.1,0-0.1,0.1-0.1c1.1,0,2.2,0,3.3,0c1.2,0,2.4,0,3.6,0c0,0,0,0,0.1,0c0.2,0,0.2,0,0.2-0.2c0-0.7,0-1.3,0-2c0-0.1,0-0.1,0-0.2
	c1.7,1.2,3.3,2.5,5,3.7c1.7,1.2,3.3,2.4,5,3.7C41.9,19.2,38.6,21.7,35.3,24.1z"/>
<path class="st1" d="M36,10.7c2.7,2,5.4,4,8.1,6c-2.7,2-5.4,4-8.1,6c0,0,0-0.1,0-0.1c0-0.4,0-0.9,0-1.3c0-0.2,0-0.2-0.2-0.2
	c-0.3,0-0.6,0-1,0c-2,0-4,0-6,0c-0.2,0-0.2,0-0.2-0.2c0-0.7,0-1.4,0-2.1c0,0,0-0.1,0-0.1c0,0,0-0.1,0.1-0.1c0,0,0.1,0,0.1,0
	c1.2,0,2.4,0,3.6,0c0,0,0.1,0,0.1,0c0.1,0,0.1,0,0.1-0.1c0,0,0-0.1,0-0.1c0-1.1,0-2.2,0-3.3c0,0,0-0.1,0-0.1c0-0.1,0-0.1-0.1-0.1
	c0,0-0.1,0-0.1,0c-1.2,0-2.4,0-3.5,0c0,0-0.1,0-0.1,0c-0.1,0-0.1,0-0.1-0.1c0,0,0-0.1,0-0.1c0-0.7,0-1.4,0-2.1c0,0,0-0.1,0-0.1
	c0-0.1,0-0.1,0.1-0.1c0,0,0.1,0,0.1,0c2.3,0,4.6,0,6.9,0c0.2,0,0.2,0,0.2-0.2c0-0.4,0-0.9,0-1.3C36,10.9,36,10.8,36,10.7z"/>
</svg>
